<?xml version="1.0"?>
<svg xmlns="http://www.w3.org/2000/svg" xmlns:xlink="http://www.w3.org/1999/xlink" contentStyleType="text/css" height="689px" preserveAspectRatio="none" style="width:787px;height:689px;background:#FFFFFF;" version="1.1" viewBox="0 0 787 689" width="787px" zoomAndPan="magnify">
  <defs>
    <filter height="300%" id="fyo5qpegxe0qw" width="300%" x="-1" y="-1">
      <feGaussianBlur result="blurOut" stdDeviation="2.0"/>
      <feColorMatrix in="blurOut" result="blurOut2" type="matrix" values="0 0 0 0 0 0 0 0 0 0 0 0 0 0 0 0 0 0 .4 0"/>
      <feOffset dx="4.0" dy="4.0" in="blurOut2" result="blurOut3"/>
      <feBlend in="SourceGraphic" in2="blurOut3" mode="normal"/>
    </filter>
  </defs>
  <g>
    <rect fill="none" filter="url(#fyo5qpegxe0qw)" height="363.0421" style="stroke:#000000;stroke-width:2.0;" width="569.4322" x="204.5272" y="263.304"/>
    <rect fill="none" filter="url(#fyo5qpegxe0qw)" height="100.0999" style="stroke:#000000;stroke-width:2.0;" width="265.5478" x="403.2292" y="411.1281"/>
    <line style="stroke:#A80036;stroke-width:1.0;stroke-dasharray:5.0,5.0;" x1="77" x2="77" y1="43.0679" y2="643.3461"/>
    <line style="stroke:#A80036;stroke-width:1.0;stroke-dasharray:5.0,5.0;" x1="281.5272" x2="281.5272" y1="43.0679" y2="643.3461"/>
    <line style="stroke:#A80036;stroke-width:1.0;stroke-dasharray:5.0,5.0;" x1="453.2292" x2="453.2292" y1="43.0679" y2="643.3461"/>
    <line style="stroke:#A80036;stroke-width:1.0;stroke-dasharray:5.0,5.0;" x1="587.8994" x2="587.8994" y1="43.0679" y2="643.3461"/>
    <rect fill="#FEFECE" filter="url(#fyo5qpegxe0qw)" height="33.0679" style="stroke:#A80036;stroke-width:1.5;" width="140.0835" x="5" y="5"/>
    <text fill="#000000" font-family="sans-serif" font-size="14" lengthAdjust="spacing" textLength="126.0835" x="12" y="26.9659">Application Startup</text>
    <rect fill="#FEFECE" filter="url(#fyo5qpegxe0qw)" height="33.0679" style="stroke:#A80036;stroke-width:1.5;" width="140.0835" x="5" y="642.3461"/>
    <text fill="#000000" font-family="sans-serif" font-size="14" lengthAdjust="spacing" textLength="126.0835" x="12" y="664.312">Application Startup</text>
    <rect fill="#FEFECE" filter="url(#fyo5qpegxe0qw)" height="33.0679" style="stroke:#A80036;stroke-width:1.5;" width="131.7815" x="214.5272" y="5"/>
    <text fill="#000000" font-family="sans-serif" font-size="14" lengthAdjust="spacing" textLength="117.7815" x="221.5272" y="26.9659">quota_scheduler()</text>
    <rect fill="#FEFECE" filter="url(#fyo5qpegxe0qw)" height="33.0679" style="stroke:#A80036;stroke-width:1.5;" width="131.7815" x="214.5272" y="642.3461"/>
    <text fill="#000000" font-family="sans-serif" font-size="14" lengthAdjust="spacing" textLength="117.7815" x="221.5272" y="664.312">quota_scheduler()</text>
    <rect fill="#FEFECE" filter="url(#fyo5qpegxe0qw)" height="33.0679" style="stroke:#A80036;stroke-width:1.5;" width="76.0478" x="413.2292" y="5"/>
    <text fill="#000000" font-family="sans-serif" font-size="14" lengthAdjust="spacing" textLength="62.0478" x="420.2292" y="26.9659">Database</text>
    <rect fill="#FEFECE" filter="url(#fyo5qpegxe0qw)" height="33.0679" style="stroke:#A80036;stroke-width:1.5;" width="76.0478" x="413.2292" y="642.3461"/>
    <text fill="#000000" font-family="sans-serif" font-size="14" lengthAdjust="spacing" textLength="62.0478" x="420.2292" y="664.312">Database</text>
    <rect fill="#FEFECE" filter="url(#fyo5qpegxe0qw)" height="33.0679" style="stroke:#A80036;stroke-width:1.5;" width="136.8775" x="517.8994" y="5"/>
    <text fill="#000000" font-family="sans-serif" font-size="14" lengthAdjust="spacing" textLength="122.8775" x="524.8994" y="26.9659">quota_revocation()</text>
    <rect fill="#FEFECE" filter="url(#fyo5qpegxe0qw)" height="33.0679" style="stroke:#A80036;stroke-width:1.5;" width="136.8775" x="517.8994" y="642.3461"/>
    <text fill="#000000" font-family="sans-serif" font-size="14" lengthAdjust="spacing" textLength="122.8775" x="524.8994" y="664.312">quota_revocation()</text>
    <line style="stroke:#A80036;stroke-width:1.0;" x1="280.4179" x2="270.4179" y1="76.7739" y2="72.7739"/>
    <line style="stroke:#A80036;stroke-width:1.0;" x1="280.4179" x2="270.4179" y1="76.7739" y2="80.7739"/>
    <line style="stroke:#A80036;stroke-width:1.0;" x1="77.0418" x2="281.4179" y1="76.7739" y2="76.7739"/>
    <text fill="#000000" font-family="sans-serif" font-size="13" lengthAdjust="spacing" textLength="181.3762" x="84.0418" y="70.9649">start_quota_scheduler(config)</text>
    <line style="stroke:#A80036;stroke-width:1.0;" x1="282.4179" x2="324.4179" y1="108.4799" y2="108.4799"/>
    <line style="stroke:#A80036;stroke-width:1.0;" x1="324.4179" x2="324.4179" y1="108.4799" y2="121.4799"/>
    <line style="stroke:#A80036;stroke-width:1.0;" x1="282.4179" x2="324.4179" y1="121.4799" y2="121.4799"/>
    <line style="stroke:#A80036;stroke-width:1.0;" x1="283.4179" x2="293.4179" y1="121.4799" y2="117.4799"/>
    <line style="stroke:#A80036;stroke-width:1.0;" x1="283.4179" x2="293.4179" y1="121.4799" y2="125.4799"/>
    <text fill="#000000" font-family="sans-serif" font-size="13" lengthAdjust="spacing" textLength="138.8271" x="289.4179" y="102.6709">Spawn daemon thread</text>
    <line style="stroke:#A80036;stroke-width:1.0;" x1="451.2531" x2="441.2531" y1="153.186" y2="149.186"/>
    <line style="stroke:#A80036;stroke-width:1.0;" x1="451.2531" x2="441.2531" y1="153.186" y2="157.186"/>
    <line style="stroke:#A80036;stroke-width:1.0;" x1="282.4179" x2="452.2531" y1="153.186" y2="153.186"/>
    <text fill="#000000" font-family="sans-serif" font-size="13" lengthAdjust="spacing" textLength="94.1981" x="289.4179" y="147.377">connect(config)</text>
    <line style="stroke:#A80036;stroke-width:1.0;" x1="283.4179" x2="293.4179" y1="184.892" y2="180.892"/>
    <line style="stroke:#A80036;stroke-width:1.0;" x1="283.4179" x2="293.4179" y1="184.892" y2="188.892"/>
    <line style="stroke:#A80036;stroke-width:1.0;stroke-dasharray:2.0,2.0;" x1="282.4179" x2="452.2531" y1="184.892" y2="184.892"/>
    <text fill="#000000" font-family="sans-serif" font-size="13" lengthAdjust="spacing" textLength="67.6911" x="299.4179" y="179.083">connection</text>
    <line style="stroke:#A80036;stroke-width:1.0;" x1="451.2531" x2="441.2531" y1="216.598" y2="212.598"/>
    <line style="stroke:#A80036;stroke-width:1.0;" x1="451.2531" x2="441.2531" y1="216.598" y2="220.598"/>
    <line style="stroke:#A80036;stroke-width:1.0;" x1="282.4179" x2="452.2531" y1="216.598" y2="216.598"/>
    <text fill="#000000" font-family="sans-serif" font-size="13" lengthAdjust="spacing" textLength="137.5921" x="289.4179" y="210.789">init_tables(connection)</text>
    <line style="stroke:#A80036;stroke-width:1.0;" x1="283.4179" x2="293.4179" y1="248.304" y2="244.304"/>
    <line style="stroke:#A80036;stroke-width:1.0;" x1="283.4179" x2="293.4179" y1="248.304" y2="252.304"/>
    <line style="stroke:#A80036;stroke-width:1.0;stroke-dasharray:2.0,2.0;" x1="282.4179" x2="452.2531" y1="248.304" y2="248.304"/>
    <text fill="#000000" font-family="sans-serif" font-size="13" lengthAdjust="spacing" textLength="146.8351" x="299.4179" y="242.495">quota_limits table ready</text>
    <path d="M204.5272,263.304 L278.2312,263.304 L278.2312,273.01 L268.2312,283.01 L204.5272,283.01 L204.5272,263.304 " fill="#EEEEEE" style="stroke:#000000;stroke-width:1.0;"/>
    <rect fill="none" height="363.0421" style="stroke:#000000;stroke-width:2.0;" width="569.4322" x="204.5272" y="263.304"/>
    <text fill="#000000" font-family="sans-serif" font-size="13" font-weight="bold" lengthAdjust="spacing" textLength="28.704" x="219.5272" y="278.201">loop</text>
    <text fill="#000000" font-family="sans-serif" font-size="11" font-weight="bold" lengthAdjust="spacing" textLength="156.4162" x="293.2312" y="277.0629">[Infinite Loop (every period)]</text>
    <line style="stroke:#A80036;stroke-width:1.0;" x1="282.4179" x2="324.4179" y1="306.716" y2="306.716"/>
    <line style="stroke:#A80036;stroke-width:1.0;" x1="324.4179" x2="324.4179" y1="306.716" y2="319.716"/>
    <line style="stroke:#A80036;stroke-width:1.0;" x1="282.4179" x2="324.4179" y1="319.716" y2="319.716"/>
    <line style="stroke:#A80036;stroke-width:1.0;" x1="283.4179" x2="293.4179" y1="319.716" y2="315.716"/>
    <line style="stroke:#A80036;stroke-width:1.0;" x1="283.4179" x2="293.4179" y1="319.716" y2="323.716"/>
    <text fill="#000000" font-family="sans-serif" font-size="13" lengthAdjust="spacing" textLength="120.4191" x="289.4179" y="300.907">Select limiter config</text>
    <line style="stroke:#A80036;stroke-width:1.0;" x1="586.3382" x2="576.3382" y1="351.4221" y2="347.4221"/>
    <line style="stroke:#A80036;stroke-width:1.0;" x1="586.3382" x2="576.3382" y1="351.4221" y2="355.4221"/>
    <line style="stroke:#A80036;stroke-width:1.0;" x1="282.4179" x2="587.3382" y1="351.4221" y2="351.4221"/>
    <text fill="#000000" font-family="sans-serif" font-size="13" lengthAdjust="spacing" textLength="228.2672" x="289.4179" y="345.6131">quota_revocation(connection, limiter)</text>
    <line style="stroke:#A80036;stroke-width:1.0;" x1="588.3382" x2="630.3382" y1="383.1281" y2="383.1281"/>
    <line style="stroke:#A80036;stroke-width:1.0;" x1="630.3382" x2="630.3382" y1="383.1281" y2="396.1281"/>
    <line style="stroke:#A80036;stroke-width:1.0;" x1="588.3382" x2="630.3382" y1="396.1281" y2="396.1281"/>
    <line style="stroke:#A80036;stroke-width:1.0;" x1="589.3382" x2="599.3382" y1="396.1281" y2="392.1281"/>
    <line style="stroke:#A80036;stroke-width:1.0;" x1="589.3382" x2="599.3382" y1="396.1281" y2="400.1281"/>
    <text fill="#000000" font-family="sans-serif" font-size="13" lengthAdjust="spacing" textLength="166.6212" x="595.3382" y="377.3191">get_subject_id(limiter_type)</text>
    <path d="M403.2292,411.1281 L464.7879,411.1281 L464.7879,420.8341 L454.7879,430.8341 L403.2292,430.8341 L403.2292,411.1281 " fill="#EEEEEE" style="stroke:#000000;stroke-width:1.0;"/>
    <rect fill="none" height="100.0999" style="stroke:#000000;stroke-width:2.0;" width="265.5478" x="403.2292" y="411.1281"/>
    <text fill="#000000" font-family="sans-serif" font-size="13" font-weight="bold" lengthAdjust="spacing" textLength="16.5588" x="418.2292" y="426.0251">alt</text>
    <text fill="#000000" font-family="sans-serif" font-size="11" font-weight="bold" lengthAdjust="spacing" textLength="116.9347" x="479.7879" y="424.887">[Reset quota needed]</text>
    <line style="stroke:#A80036;stroke-width:1.0;" x1="454.2531" x2="464.2531" y1="454.5401" y2="450.5401"/>
    <line style="stroke:#A80036;stroke-width:1.0;" x1="454.2531" x2="464.2531" y1="454.5401" y2="458.5401"/>
    <line style="stroke:#A80036;stroke-width:1.0;" x1="453.2531" x2="587.3382" y1="454.5401" y2="454.5401"/>
    <text fill="#000000" font-family="sans-serif" font-size="13" lengthAdjust="spacing" textLength="90.8571" x="470.2531" y="448.7311">reset_quota(...)</text>
    <line style="stroke:#000000;stroke-width:1.0;stroke-dasharray:2.0,2.0;" x1="403.2292" x2="668.777" y1="463.5401" y2="463.5401"/>
    <text fill="#000000" font-family="sans-serif" font-size="11" font-weight="bold" lengthAdjust="spacing" textLength="133.6738" x="408.2292" y="475.299">[Increase quota needed]</text>
    <line style="stroke:#A80036;stroke-width:1.0;" x1="454.2531" x2="464.2531" y1="503.228" y2="499.228"/>
    <line style="stroke:#A80036;stroke-width:1.0;" x1="454.2531" x2="464.2531" y1="503.228" y2="507.228"/>
    <line style="stroke:#A80036;stroke-width:1.0;" x1="453.2531" x2="587.3382" y1="503.228" y2="503.228"/>
    <text fill="#000000" font-family="sans-serif" font-size="13" lengthAdjust="spacing" textLength="111.0851" x="470.2531" y="497.419">increase_quota(...)</text>
    <line style="stroke:#A80036;stroke-width:1.0;" x1="586.3382" x2="576.3382" y1="541.934" y2="537.934"/>
    <line style="stroke:#A80036;stroke-width:1.0;" x1="586.3382" x2="576.3382" y1="541.934" y2="545.934"/>
    <line style="stroke:#A80036;stroke-width:1.0;stroke-dasharray:2.0,2.0;" x1="453.2531" x2="587.3382" y1="541.934" y2="541.934"/>
    <text fill="#000000" font-family="sans-serif" font-size="13" lengthAdjust="spacing" textLength="84.3961" x="460.2531" y="536.125">rows updated</text>
    <line style="stroke:#A80036;stroke-width:1.0;" x1="283.4179" x2="293.4179" y1="573.6401" y2="569.6401"/>
    <line style="stroke:#A80036;stroke-width:1.0;" x1="283.4179" x2="293.4179" y1="573.6401" y2="577.6401"/>
    <line style="stroke:#A80036;stroke-width:1.0;stroke-dasharray:2.0,2.0;" x1="282.4179" x2="587.3382" y1="573.6401" y2="573.6401"/>
    <text fill="#000000" font-family="sans-serif" font-size="13" lengthAdjust="spacing" textLength="56.966" x="299.4179" y="567.831">complete</text>
    <line style="stroke:#A80036;stroke-width:1.0;" x1="282.4179" x2="324.4179" y1="605.3461" y2="605.3461"/>
    <line style="stroke:#A80036;stroke-width:1.0;" x1="324.4179" x2="324.4179" y1="605.3461" y2="618.3461"/>
    <line style="stroke:#A80036;stroke-width:1.0;" x1="282.4179" x2="324.4179" y1="618.3461" y2="618.3461"/>
    <line style="stroke:#A80036;stroke-width:1.0;" x1="283.4179" x2="293.4179" y1="618.3461" y2="614.3461"/>
    <line style="stroke:#A80036;stroke-width:1.0;" x1="283.4179" x2="293.4179" y1="618.3461" y2="622.3461"/>
    <text fill="#000000" font-family="sans-serif" font-size="13" lengthAdjust="spacing" textLength="97.5261" x="289.4179" y="599.5371">Sleep for period</text>
  </g>
</svg>

